HIERARCHY
ROOT Hips
{
	OFFSET 0.000000 121.760803 0.000000
	CHANNELS 6 Xposition Yposition Zposition Xrotation Yrotation Zrotation 
	JOINT Spine
	{
		OFFSET 0.072000 7.257294 -0.789700
		CHANNELS 3 Xrotation Yrotation Zrotation
		JOINT Spine1
		{
			OFFSET 0.000000 12.508769 -0.658067
			CHANNELS 3 Xrotation Yrotation Zrotation
			JOINT Spine1_split
			{
				OFFSET 0.000000 12.508769 -0.658067
				CHANNELS 3 Xrotation Yrotation Zrotation
				JOINT Spine2
				{
					OFFSET 0.000000 12.508769 -0.658067
					CHANNELS 3 Xrotation Yrotation Zrotation
					JOINT Neck
					{
						OFFSET 0.000000 14.033295 7.520400
						CHANNELS 3 Xrotation Yrotation Zrotation
						JOINT Head
						{
							OFFSET 0.000000 8.198502 5.703100
							CHANNELS 3 Xrotation Yrotation Zrotation
							JOINT HeadTop_End
							{
								OFFSET 0.000000 17.760803 13.332701
								CHANNELS 3 Xrotation Yrotation Zrotation
								End Site
								{
									OFFSET 0.000000 0.000000 0.000000
								}
							}
						}
					}
					JOINT LeftShoulder
					{
						OFFSET 6.292450 5.785301 -0.669000
						CHANNELS 3 Xrotation Yrotation Zrotation
						JOINT LeftShoulder_split
						{
							OFFSET 6.292450 5.785301 -0.669000
							CHANNELS 3 Xrotation Yrotation Zrotation
							JOINT LeftArm
							{
								OFFSET 13.907140 -6.093903 1.965100
								CHANNELS 3 Xrotation Yrotation Zrotation
								JOINT LeftForeArm
								{
									OFFSET 34.140198 0.000000 0.000000
									CHANNELS 3 Xrotation Yrotation Zrotation
									JOINT LeftHand
									{
										OFFSET 40.960209 0.000000 0.000000
										CHANNELS 3 Xrotation Yrotation Zrotation
										JOINT LeftHandThumb1
										{
											OFFSET 10.006996 -7.170425 9.573125
											CHANNELS 3 Xrotation Yrotation Zrotation
											JOINT LeftHandThumb2
											{
												OFFSET 1.835007 -1.059448 1.059443
												CHANNELS 3 Xrotation Yrotation Zrotation
												JOINT LeftHandThumb3
												{
													OFFSET 2.112267 -1.219513 1.219518
													CHANNELS 3 Xrotation Yrotation Zrotation
													JOINT LeftHandThumb4
													{
														OFFSET 4.843811 -2.796570 2.796576
														CHANNELS 3 Xrotation Yrotation Zrotation
														End Site
														{
															OFFSET 0.000000 0.000000 0.000000
														}
													}
												}
											}
										}
										JOINT LeftHandIndex1
										{
											OFFSET 18.389847 -0.922348 4.596882
											CHANNELS 3 Xrotation Yrotation Zrotation
											JOINT LeftHandIndex2
											{
												OFFSET 4.711273 0.000000 0.000000
												CHANNELS 3 Xrotation Yrotation Zrotation
												JOINT LeftHandIndex3
												{
													OFFSET 2.886131 0.000000 0.000000
													CHANNELS 3 Xrotation Yrotation Zrotation
													JOINT LeftHandIndex4
													{
														OFFSET 6.145912 0.000000 0.000000
														CHANNELS 3 Xrotation Yrotation Zrotation
														End Site
														{
															OFFSET 0.000000 0.000000 0.000000
														}
													}
												}
											}
										}
										JOINT LeftHandMiddle1
										{
											OFFSET 18.013008 0.000000 0.000000
											CHANNELS 3 Xrotation Yrotation Zrotation
											JOINT LeftHandMiddle2
											{
												OFFSET 4.946693 0.000000 0.000000
												CHANNELS 3 Xrotation Yrotation Zrotation
												JOINT LeftHandMiddle3
												{
													OFFSET 3.342232 0.000000 0.000000
													CHANNELS 3 Xrotation Yrotation Zrotation
													JOINT LeftHandMiddle4
													{
														OFFSET 4.461754 0.000000 0.000000
														CHANNELS 3 Xrotation Yrotation Zrotation
														End Site
														{
															OFFSET 0.000000 0.000000 0.000000
														}
													}
												}
											}
										}
										JOINT LeftHandRing1
										{
											OFFSET 15.849892 -0.102921 -4.126150
											CHANNELS 3 Xrotation Yrotation Zrotation
											JOINT LeftHandRing2
											{
												OFFSET 3.527054 0.000000 0.000000
												CHANNELS 3 Xrotation Yrotation Zrotation
												JOINT LeftHandRing3
												{
													OFFSET 2.961098 0.000000 0.000000
													CHANNELS 3 Xrotation Yrotation Zrotation
													JOINT LeftHandRing4
													{
														OFFSET 4.927200 0.000000 0.000000
														CHANNELS 3 Xrotation Yrotation Zrotation
														End Site
														{
															OFFSET 0.000000 0.000000 0.000000
														}
													}
												}
											}
										}
										JOINT LeftHandPinky1
										{
											OFFSET 12.791824 -0.832031 -6.799156
											CHANNELS 3 Xrotation Yrotation Zrotation
											JOINT LeftHandPinky2
											{
												OFFSET 3.327133 0.000000 0.000000
												CHANNELS 3 Xrotation Yrotation Zrotation
												JOINT LeftHandPinky3
												{
													OFFSET 3.014900 0.000000 0.000000
													CHANNELS 3 Xrotation Yrotation Zrotation
													JOINT LeftHandPinky4
													{
														OFFSET 5.847786 0.000000 0.000000
														CHANNELS 3 Xrotation Yrotation Zrotation
														End Site
														{
															OFFSET 0.000000 0.000000 0.000000
														}
													}
												}
											}
										}
									}
								}
							}
						}
					}
					JOINT RightShoulder
					{
						OFFSET -6.292450 5.785301 -0.669000
						CHANNELS 3 Xrotation Yrotation Zrotation
						JOINT RightShoulder_split
						{
							OFFSET -6.292450 5.785301 -0.669000
							CHANNELS 3 Xrotation Yrotation Zrotation
							JOINT RightArm
							{
								OFFSET -13.907140 -6.093903 1.965100
								CHANNELS 3 Xrotation Yrotation Zrotation
								JOINT RightForeArm
								{
									OFFSET -34.140198 0.000000 0.000000
									CHANNELS 3 Xrotation Yrotation Zrotation
									JOINT RightHand
									{
										OFFSET -40.960209 0.000000 0.000000
										CHANNELS 3 Xrotation Yrotation Zrotation
										JOINT RightHandThumb1
										{
											OFFSET -10.007050 -7.170456 9.573117
											CHANNELS 3 Xrotation Yrotation Zrotation
											JOINT RightHandThumb2
											{
												OFFSET -1.835007 -1.059448 1.059443
												CHANNELS 3 Xrotation Yrotation Zrotation
												JOINT RightHandThumb3
												{
													OFFSET -2.112267 -1.219513 1.219518
													CHANNELS 3 Xrotation Yrotation Zrotation
													JOINT RightHandThumb4
													{
														OFFSET -4.843834 -2.796585 2.796590
														CHANNELS 3 Xrotation Yrotation Zrotation
														End Site
														{
															OFFSET 0.000000 0.000000 0.000000
														}
													}
												}
											}
										}
										JOINT RightHandIndex1
										{
											OFFSET -18.389870 -0.922424 4.596786
											CHANNELS 3 Xrotation Yrotation Zrotation
											JOINT RightHandIndex2
											{
												OFFSET -4.711273 0.000000 0.000000
												CHANNELS 3 Xrotation Yrotation Zrotation
												JOINT RightHandIndex3
												{
													OFFSET -2.886131 0.000000 0.000000
													CHANNELS 3 Xrotation Yrotation Zrotation
													JOINT RightHandIndex4
													{
														OFFSET -6.145920 0.000000 0.000000
														CHANNELS 3 Xrotation Yrotation Zrotation
														End Site
														{
															OFFSET 0.000000 0.000000 0.000000
														}
													}
												}
											}
										}
										JOINT RightHandMiddle1
										{
											OFFSET -18.013008 0.000000 0.000000
											CHANNELS 3 Xrotation Yrotation Zrotation
											JOINT RightHandMiddle2
											{
												OFFSET -4.946693 0.000000 0.000000
												CHANNELS 3 Xrotation Yrotation Zrotation
												JOINT RightHandMiddle3
												{
													OFFSET -3.342232 0.000000 0.000000
													CHANNELS 3 Xrotation Yrotation Zrotation
													JOINT RightHandMiddle4
													{
														OFFSET -4.461754 0.000000 0.000000
														CHANNELS 3 Xrotation Yrotation Zrotation
														End Site
														{
															OFFSET 0.000000 0.000000 0.000000
														}
													}
												}
											}
										}
										JOINT RightHandRing1
										{
											OFFSET -15.849876 -0.102936 -4.126237
											CHANNELS 3 Xrotation Yrotation Zrotation
											JOINT RightHandRing2
											{
												OFFSET -3.527054 0.000000 0.000000
												CHANNELS 3 Xrotation Yrotation Zrotation
												JOINT RightHandRing3
												{
													OFFSET -2.961098 0.000000 0.000000
													CHANNELS 3 Xrotation Yrotation Zrotation
													JOINT RightHandRing4
													{
														OFFSET -4.927200 0.000000 0.000000
														CHANNELS 3 Xrotation Yrotation Zrotation
														End Site
														{
															OFFSET 0.000000 0.000000 0.000000
														}
													}
												}
											}
										}
										JOINT RightHandPinky1
										{
											OFFSET -12.791786 -0.832077 -6.799222
											CHANNELS 3 Xrotation Yrotation Zrotation
											JOINT RightHandPinky2
											{
												OFFSET -3.327133 0.000000 0.000000
												CHANNELS 3 Xrotation Yrotation Zrotation
												JOINT RightHandPinky3
												{
													OFFSET -3.014900 0.000000 0.000000
													CHANNELS 3 Xrotation Yrotation Zrotation
													JOINT RightHandPinky4
													{
														OFFSET -5.847786 0.000000 0.000000
														CHANNELS 3 Xrotation Yrotation Zrotation
														End Site
														{
															OFFSET 0.000000 0.000000 0.000000
														}
													}
												}
											}
										}
									}
								}
							}
						}
					}
				}
			}
		}
	}
	JOINT LeftUpLeg
	{
		OFFSET 13.026900 -6.336304 -1.092800
		CHANNELS 3 Xrotation Yrotation Zrotation
		JOINT LeftLeg
		{
			OFFSET 0.524474 -46.096886 9.782700
			CHANNELS 3 Xrotation Yrotation Zrotation
			JOINT LeftFoot
			{
				OFFSET -0.524474 -53.427422 -12.948200
				CHANNELS 3 Xrotation Yrotation Zrotation
				JOINT LeftToeBase
				{
					OFFSET 0.192200 -14.009700 16.364100
					CHANNELS 3 Xrotation Yrotation Zrotation
					JOINT LeftToe_End
					{
						OFFSET -1.784700 -0.561700 9.474800
						CHANNELS 3 Xrotation Yrotation Zrotation
						End Site
						{
							OFFSET 0.000000 0.000000 0.000000
						}
					}
				}
			}
		}
	}
	JOINT RightUpLeg
	{
		OFFSET -12.883000 -6.336304 -1.092800
		CHANNELS 3 Xrotation Yrotation Zrotation
		JOINT RightLeg
		{
			OFFSET -0.524587 -46.096825 9.782800
			CHANNELS 3 Xrotation Yrotation Zrotation
			JOINT RightFoot
			{
				OFFSET 0.524587 -53.427383 -12.948300
				CHANNELS 3 Xrotation Yrotation Zrotation
				JOINT RightToeBase
				{
					OFFSET -0.192200 -14.009700 16.364100
					CHANNELS 3 Xrotation Yrotation Zrotation
					JOINT RightToe_End
					{
						OFFSET 1.784700 -0.561700 9.474800
						CHANNELS 3 Xrotation Yrotation Zrotation
						End Site
						{
							OFFSET 0.000000 0.000000 0.000000
						}
					}
				}
			}
		}
	}
}
MOTION
Frames: 4
Frame Time: 0.016667
-1.722775 69.007973 8.850830 38.716422 -53.620380 31.197005 8.232816 -2.121960 -2.911204 3.591994 -3.361495 -2.519241 0.000000 0.000000 0.000000 3.576394 -3.306018 -2.583292 -4.843159 17.213125 -6.645899 -39.838707 36.524385 9.074943 0.000000 0.000000 -0.000000 5.547263 -8.009823 -6.640972 0.000000 0.000000 0.000000 -64.034273 1.869226 -22.502840 21.515676 -29.366801 16.956517 -2.616370 -8.068150 2.194878 40.109938 -15.297168 -0.360499 5.639826 28.097926 11.338847 1.088579 40.896284 22.734015 -0.000001 -0.000005 -0.000002 6.880116 2.821170 -61.138594 8.248011 7.640067 -89.897878 2.146098 8.173441 -41.827730 0.000001 -0.000000 0.000003 -2.344780 4.689002 -62.667874 8.755238 9.896959 -87.054675 1.995398 4.929300 -37.483440 0.000001 -0.000003 -0.000002 -9.042456 10.045660 -60.766185 8.524168 9.509000 -66.902564 6.576560 9.896778 -70.385093 -0.000002 0.000001 -0.000000 -17.946899 14.754986 -51.485860 8.862288 8.673542 -84.822391 4.529497 8.854146 -59.170632 0.000001 0.000001 -0.000002 5.583194 9.006415 15.903908 0.000000 0.000000 0.000000 -10.769838 1.892022 48.290838 -18.711325 38.477259 8.552187 6.179201 2.978086 -16.977730 -6.830676 -6.304601 5.093509 1.899667 -22.662930 -8.729826 -1.009206 6.019752 3.060237 -0.000001 -0.000002 0.000001 -0.976064 0.915599 -2.034101 0.028896 -0.078688 8.598525 -0.002797 -2.007111 -2.090636 -0.000000 0.000001 0.000002 1.418792 -6.781359 2.948458 1.033156 -4.271115 20.381551 0.107784 1.709292 -0.583006 0.000000 -0.000000 -0.000003 -5.862055 -13.951768 7.701482 1.592902 -4.798650 20.257214 1.025475 -4.086461 17.156400 -0.000000 -0.000001 0.000000 -5.934315 -14.361596 26.354234 2.930744 -2.669611 12.240941 5.894386 -5.359965 25.324479 -0.000003 -0.000001 0.000002 -84.571600 -11.327756 27.400545 92.158445 -11.818894 1.045371 -26.221783 1.797879 -15.957991 -1.836411 -0.000625 -0.000026 0.000000 0.000001 0.000000 -85.965765 1.682021 -34.357156 93.892022 7.516585 1.356987 -25.706370 -2.777097 12.387902 0.710723 0.013945 -0.061725 0.000000 0.000000 -0.000000 
-1.546005 66.983902 8.440601 39.308750 -53.449109 31.571255 7.946562 -2.060321 -2.841712 3.758338 -3.279235 -2.496427 0.000000 0.000000 0.000000 3.743203 -3.226207 -2.558058 -4.149929 17.553328 -7.160895 -39.823046 36.047177 8.584219 0.000000 0.000000 0.000000 5.745036 -8.108521 -6.895810 0.000000 0.000000 0.000000 -64.657023 0.940676 -22.490088 22.078535 -28.805694 16.993208 -2.188447 -8.346540 1.944081 40.109938 -15.297168 -0.360497 5.639826 28.097926 11.338842 1.088579 40.896280 22.734011 -0.000001 -0.000001 0.000000 6.879328 2.813759 -61.137870 8.248013 7.640065 -89.897878 2.146097 8.173447 -41.827730 -0.000001 -0.000003 0.000003 -2.346729 4.689018 -62.672798 8.755133 9.897003 -87.054463 1.995398 4.929301 -37.483436 -0.000001 -0.000001 -0.000002 -9.042457 10.045659 -60.766185 8.524226 9.509097 -66.906218 6.576557 9.896780 -70.385093 0.000004 0.000001 0.000001 -17.946899 14.754990 -51.485853 8.862088 8.673822 -84.826687 4.529317 8.854203 -59.177749 0.000001 0.000001 -0.000002 5.819255 9.101604 16.094147 0.000000 0.000000 0.000000 -10.347731 2.384179 47.454433 -19.056460 39.289632 8.937035 5.144275 3.543875 -17.909700 -7.273783 -5.961035 4.974739 1.807453 -22.244847 -8.652310 -1.201071 6.515367 3.220159 -0.000000 -0.000001 -0.000003 -0.860003 0.831739 -2.769305 0.027981 -0.078737 7.696498 -0.008813 -2.006682 -2.292484 -0.000000 -0.000003 -0.000002 1.401310 -6.841178 1.747793 0.975746 -4.290823 19.317640 0.118827 1.706408 -0.996365 0.000002 0.000001 -0.000003 -5.234676 -14.009316 5.961766 1.421485 -4.592400 19.068148 0.993357 -4.093296 16.411736 0.000001 -0.000000 0.000000 -6.123066 -14.120941 22.999689 2.904569 -2.693788 11.162827 5.805122 -5.475627 24.185973 0.000001 -0.000000 0.000001 -86.905811 -13.009048 27.696012 94.310726 -12.298296 1.010222 -26.042227 1.823144 -16.494007 -1.836411 -0.000619 -0.000026 0.000000 -0.000003 -0.000000 -88.594247 2.689194 -34.759625 96.366258 8.238094 1.356828 -25.579683 -2.809121 12.043230 0.458992 0.014341 -0.062021 0.000000 0.000000 -0.000000 
-1.391411 65.023903 8.056696 39.840999 -53.338067 31.953756 7.651402 -1.993481 -2.784170 3.920445 -3.180471 -2.492624 0.000000 0.000000 0.000000 3.905907 -3.129783 -2.551265 -3.463313 17.929195 -7.697887 -39.698135 35.578602 8.116831 0.000000 0.000000 -0.000000 5.951876 -8.061984 -6.968059 0.000000 0.000000 0.000000 -65.208567 0.226328 -22.718876 22.757996 -28.220313 17.107332 -1.837089 -8.526902 1.949940 40.109931 -15.297170 -0.360500 5.639824 28.097933 11.338847 1.088581 40.896277 22.734020 0.000000 -0.000002 0.000002 6.878506 2.806577 -61.137174 8.248012 7.640065 -89.897878 2.146096 8.173443 -41.827730 -0.000000 -0.000001 0.000002 -2.348138 4.689088 -62.677641 8.755051 9.896945 -87.054313 1.995399 4.929299 -37.483433 0.000001 0.000000 0.000000 -9.042453 10.045660 -60.766178 8.524225 9.509176 -66.909885 6.576559 9.896779 -70.385093 0.000002 0.000003 -0.000003 -17.946899 14.754991 -51.485857 8.861917 8.674118 -84.830813 4.529179 8.854266 -59.184737 0.000003 -0.000002 -0.000002 6.023420 9.139914 16.277674 0.000000 0.000000 0.000000 -9.808072 2.868997 46.606349 -19.217611 39.891419 9.114106 4.158436 3.984969 -18.528408 -7.704052 -5.623307 4.866714 1.718602 -21.838347 -8.576011 -1.382531 6.990653 3.375566 0.000000 0.000003 0.000003 -0.751784 0.746883 -3.402912 0.027165 -0.078802 6.886464 -0.014221 -2.006408 -2.473968 0.000002 0.000001 -0.000002 1.379473 -6.896989 0.604299 0.922504 -4.308984 18.305593 0.128997 1.703390 -1.392413 -0.000001 -0.000000 0.000000 -4.598599 -14.115957 4.200479 1.257795 -4.370521 17.870681 0.962691 -4.099228 15.657748 0.000002 -0.000000 -0.000001 -6.286749 -13.898200 19.326227 2.878213 -2.716623 9.974119 5.708028 -5.593330 22.905533 0.000002 -0.000000 0.000000 -89.093589 -14.640032 27.982838 96.338889 -12.778042 0.973718 -25.816013 1.839251 -17.056147 -1.836411 -0.000626 -0.000027 -0.000000 0.000002 0.000000 -91.234156 3.838481 -35.090148 98.757760 9.001522 1.332924 -25.018430 -2.872919 11.808238 0.115779 0.014782 -0.062317 -0.000000 0.000000 -0.000000 
-1.252155 63.108070 7.694809 40.362180 -53.249750 32.339829 7.352156 -1.926596 -2.730622 4.076462 -3.077106 -2.496182 0.000000 0.000000 0.000000 4.062613 -3.028792 -2.551571 -2.778658 18.321571 -8.229663 -39.519297 35.119258 7.656157 0.000000 0.000000 -0.000000 6.122413 -8.035491 -6.996223 0.000000 0.000000 0.000000 -65.715845 -0.382973 -22.932770 23.412082 -27.614439 17.207439 -1.507580 -8.660982 1.990335 40.109931 -15.297168 -0.360501 5.639827 28.097925 11.338846 1.088581 40.896277 22.734011 -0.000002 0.000001 -0.000002 6.877761 2.799574 -61.136443 8.248010 7.640063 -89.897878 2.146097 8.173441 -41.827730 0.000000 -0.000003 -0.000000 -2.348855 4.689083 -62.682360 8.755002 9.896965 -87.054046 1.995396 4.929298 -37.483440 -0.000001 -0.000001 -0.000002 -9.042460 10.045662 -60.766178 8.524225 9.509251 -66.913724 6.576560 9.896778 -70.385099 -0.000001 0.000000 -0.000001 -17.946899 14.754990 -51.485857 8.861679 8.674429 -84.834945 4.529206 8.854403 -59.191608 -0.000002 -0.000000 0.000000 6.224889 9.159327 16.434209 0.000000 0.000000 0.000000 -9.202600 3.322503 45.736770 -19.298985 40.213900 9.212676 3.214235 4.447914 -18.922699 -8.110757 -5.297895 4.771019 1.635667 -21.450125 -8.501665 -1.547855 7.438886 3.524322 -0.000000 0.000002 -0.000000 -0.653792 0.663570 -3.905970 0.026718 -0.078777 6.195277 -0.018447 -2.003882 -2.623016 -0.000002 0.000002 -0.000001 1.354098 -6.946213 -0.446397 0.875431 -4.325231 17.387387 0.138228 1.700164 -1.755961 -0.000003 0.000002 0.000004 -3.971871 -14.267995 2.470763 1.106195 -4.136329 16.709334 0.934642 -4.104580 14.921744 0.000000 -0.000001 -0.000001 -6.424694 -13.717916 15.482275 2.853914 -2.736952 8.736601 5.608559 -5.711015 21.551439 -0.000001 0.000000 0.000000 -91.225680 -16.281226 28.258052 98.271717 -13.270636 0.936945 -25.526912 1.840606 -17.643224 -1.836411 -0.000621 -0.000027 -0.000000 0.000001 0.000000 -93.903872 5.099190 -35.234771 101.116627 9.554254 1.277994 -24.263631 -2.903077 11.504806 -0.302632 0.015261 -0.062555 -0.000000 -0.000000 -0.000000 
